<?xml version="1.0" encoding="UTF-8" standalone="no"?>
<!DOCTYPE svg PUBLIC "-//W3C//DTD SVG 1.1//EN" "http://www.w3.org/Graphics/SVG/1.1/DTD/svg11.dtd">
<svg version="1.1" xmlns="http://www.w3.org/2000/svg" xmlns:xlink="http://www.w3.org/1999/xlink"
     preserveAspectRatio="xMidYMid meet" viewBox="-0.995482546201174 -0.997864476385999 43.999999999999986 44"
     width="40" height="40">
    <defs>
        <path
            d="M22.61 0.17L23.88 0.38L25.12 0.66L26.32 1.02L27.5 1.46L28.64 1.96L29.74 2.53L30.8 3.17L31.81 3.86L32.78 4.62L33.7 5.44L34.57 6.3L35.39 7.22L36.14 8.19L36.84 9.21L37.48 10.27L38.05 11.37L38.55 12.51L38.98 13.68L39.34 14.89L39.63 16.13L39.84 17.4L39.96 18.69L40 20L39.96 21.32L39.84 22.61L39.63 23.87L39.34 25.11L39.08 26.01L39 26L37.68 26.07L36.39 26.27L35.14 26.59L33.95 27.02L32.81 27.57L31.74 28.22L30.74 28.97L29.81 29.81L28.97 30.73L28.23 31.74L27.57 32.81L27.03 33.94L26.59 35.14L26.27 36.38L26.07 37.67L26 39L26.01 39.08L25.12 39.34L23.88 39.63L22.61 39.83L21.32 39.96L20 40L18.69 39.96L17.4 39.83L16.13 39.63L14.89 39.34L13.69 38.98L12.51 38.55L11.37 38.05L10.27 37.47L9.21 36.84L8.2 36.14L7.23 35.38L6.31 34.57L5.44 33.7L4.62 32.78L3.87 31.81L3.17 30.79L2.53 29.74L1.96 28.63L1.46 27.5L1.02 26.32L0.66 25.11L0.38 23.87L0.17 22.61L0.05 21.32L0 20L0.05 18.69L0.17 17.4L0.38 16.13L0.66 14.89L1.02 13.68L1.46 12.51L1.96 11.37L2.53 10.27L3.17 9.21L3.87 8.19L4.62 7.22L5.44 6.3L6.31 5.44L7.23 4.62L8.2 3.86L9.21 3.17L10.27 2.53L11.37 1.96L12.51 1.46L13.69 1.02L14.89 0.66L16.13 0.38L17.4 0.17L18.69 0.04L20 0L21.32 0.04L22.61 0.17Z"
            id="a5pphJJ7q4"></path>
    </defs>
    <g>
        <g>
            <use xlink:href="#a5pphJJ7q4" opacity="1" fill-opacity="1"></use>
        </g>
    </g>
</svg>